# xmcd
#
# Track frame offsets: 
#        150
#        18790
#        33355
#        38677
#        56579
#        77135
#        91854
#        107882
#        123137
#        128758
#        145587
#        161601
#        179211
#        195420
#
# Disc length: 2888 seconds
#
# Revision: 0
# Processed by: cddbd v1.5.2PL0 Copyright (c) Steve Scherf et al.
# Submitted via: ExactAudioCopy v0.95b3
#
DISCID=ad0b460e
DTITLE=Ufo  - Obsession  FLAC
DYEAR=1900
DGENRE=
TTITLE0=Only You Can Rock Me
TTITLE1=Pack It Up (And Go)
TTITLE2=Arbory Hill
TTITLE3=Ain't No Baby
TTITLE4=Looking Out For No.1
TTITLE5=Hot'n'Ready
TTITLE6=Cherry
TTITLE7=You Don't Fool Me
TTITLE8=Looking Out For No.1 (Reprise)
TTITLE9=One More For The Rodeo
TTITLE10=Born To Lose
TTITLE11=Hot'n'Ready (live)
TTITLE12=Pack It Up (And Go) (live)
TTITLE13=Ain't No Baby (live)
EXTD=
EXTT0=
EXTT1=
EXTT2=
EXTT3=
EXTT4=
EXTT5=
EXTT6=
EXTT7=
EXTT8=
EXTT9=
EXTT10=
EXTT11=
EXTT12=
EXTT13=
PLAYORDER=
